<svg width="100" height="100" viewBox="0 0 100 100" fill="none" xmlns="http://www.w3.org/2000/svg">
<g clip-path="url(#clip0_1_2)">
<rect width="16" height="16" rx="3" transform="matrix(-1 0 0 1 72 0)" fill="#EF233C"/>
<rect width="16" height="16" rx="3" transform="matrix(-1 0 0 1 72 28)" fill="#2B2D42"/>
<rect width="16" height="16" rx="3" transform="matrix(-1 0 0 1 72 56)" fill="#2B2D42"/>
<rect width="16" height="16" rx="3" transform="matrix(-1 0 0 1 72 84)" fill="#EF233C"/>
<rect width="16" height="16" rx="3" transform="matrix(-1 0 0 1 44 0)" fill="#EF233C"/>
<rect width="16" height="16" rx="3" transform="matrix(-1 0 0 1 44 28)" fill="#2B2D42"/>
<rect width="16" height="16" rx="3" transform="matrix(-1 0 0 1 44 56)" fill="#2B2D42"/>
<rect width="16" height="16" rx="3" transform="matrix(-1 0 0 1 44 84)" fill="#EF233C"/>
<rect width="16" height="16" rx="3" transform="matrix(-1 0 0 1 16 0)" fill="#2B2D42"/>
<rect width="16" height="16" rx="3" transform="matrix(-1 0 0 1 16 28)" fill="#EF233C"/>
<rect width="16" height="16" rx="3" transform="matrix(-1 0 0 1 16 56)" fill="#EF233C"/>
<rect width="16" height="16" rx="3" transform="matrix(-1 0 0 1 16 84)" fill="#2B2D42"/>
<rect width="16" height="16" rx="3" transform="matrix(-1 0 0 1 100 0)" fill="#2B2D42"/>
<rect width="16" height="16" rx="3" transform="matrix(-1 0 0 1 100 28)" fill="#EF233C"/>
<rect width="16" height="16" rx="3" transform="matrix(-1 0 0 1 100 56)" fill="#EF233C"/>
<rect width="16" height="16" rx="3" transform="matrix(-1 0 0 1 100 84)" fill="#2B2D42"/>
</g>
<defs>
<clipPath id="clip0_1_2">
<rect width="100" height="100" fill="white"/>
</clipPath>
</defs>
</svg>
